<?xml version="1.0" standalone="no"?>
<!DOCTYPE svg PUBLIC "-//W3C//DTD SVG 20010904//EN"
 "http://www.w3.org/TR/2001/REC-SVG-20010904/DTD/svg10.dtd">
<svg version="1.0" xmlns="http://www.w3.org/2000/svg"
 width="450.000000pt" height="450.000000pt" viewBox="0 0 450.000000 450.000000"
 preserveAspectRatio="xMidYMid meet">
<metadata>
Created by potrace 1.10, written by Peter Selinger 2001-2011
</metadata>
<g transform="translate(0.000000,450.000000) scale(0.100000,-0.100000)"
fill="#6e07f3" stroke="none">
<path d="M0 2250 l0 -2250 2250 0 2250 0 0 2250 0 2250 -2250 0 -2250 0 0
-2250z m2513 1983 c67 -64 230 -221 362 -349 236 -227 1299 -1252 1462 -1409
l83 -80 0 -92 0 -92 -347 -324 c-192 -178 -457 -426 -590 -550 -133 -125 -244
-227 -247 -227 -3 0 -4 440 -1 977 l4 978 -272 266 -272 266 -3 -508 -2 -509
-365 0 -365 0 0 724 0 724 170 161 c169 159 171 161 216 161 44 0 48 -3 167
-117z m-1113 -1760 l0 -1018 201 -185 c111 -102 235 -216 275 -253 l74 -69 0
551 0 551 370 0 370 0 0 -742 0 -742 -187 -182 -188 -183 -105 103 c-308 301
-878 840 -1300 1231 -113 104 -309 288 -435 410 -127 121 -257 244 -289 274
l-58 54 44 42 c23 23 223 215 443 426 220 211 483 466 585 566 102 100 188
183 193 183 4 0 7 -458 7 -1017z"/>
</g>
</svg>
